<?xml version="1.0" encoding="utf-8"?>
<!-- Generator: Adobe Illustrator 15.1.0, SVG Export Plug-In . SVG Version: 6.00 Build 0)  -->
<!DOCTYPE svg PUBLIC "-//W3C//DTD SVG 1.1//EN" "http://www.w3.org/Graphics/SVG/1.1/DTD/svg11.dtd">
<svg version="1.1" id="Ebene_1" xmlns="http://www.w3.org/2000/svg" xmlns:xlink="http://www.w3.org/1999/xlink" x="0px" y="0px"
	 width="220px" height="226px" viewBox="0 0 220 226" enable-background="new 0 0 220 226" xml:space="preserve">
<g id="svg4472" xmlns:rdf="http://www.w3.org/1999/02/22-rdf-syntax-ns#" xmlns:svg="http://www.w3.org/2000/svg" display="none">
	<g id="layer1" transform="translate(4636.4128,-2865.2086)" display="inline">
		
			<linearGradient id="path4429_2_" gradientUnits="userSpaceOnUse" x1="-13562.4043" y1="3431.4067" x2="-13562.4043" y2="3574.8372" gradientTransform="matrix(1.3509 0 0 1.3509 14203.0801 -1706.8257)">
			<stop  offset="0" style="stop-color:#1A6FEF"/>
			<stop  offset="0.25" style="stop-color:#1E72EF"/>
			<stop  offset="0.5" style="stop-color:#166BEC"/>
			<stop  offset="0.75" style="stop-color:#1267E9"/>
			<stop  offset="1" style="stop-color:#1063E5;stop-opacity:0.87"/>
		</linearGradient>
		<path id="path4429" fill="url(#path4429_2_)" d="M-4110.981,2928.92c-35.379,0-54.52,22.4-54.52,47.41
			c0,19.04,13.641,40.521,41.779,40.521h7.119c0,0-1.938,4.711-1.949,9.26c0,6.711,2.41,10.479,7.529,16.281
			c-48.42,2.948-67.881,22.479-67.881,43.469c0,18.381,17.602,36.471,54.59,36.471c43.791,0,66.471-24.311,66.471-48.17
			c0-16.819-8.379-26.041-29.6-41.938c-6.24-4.853-7.451-7.941-7.451-11.57c0-5.201,3.111-8.641,4.25-9.939
			c2.012-2.121,5.49-4.541,6.791-5.7c7.129-6.039,17.199-14.98,17.199-32.82c0-12.24-5.09-22.77-16.689-32.63h14.16l10.641-10.64
			h-52.432L-4110.981,2928.92z M-4120.741,2936.88c6.42,0,11.779,2.27,17.439,6.98c6.279,5.66,16.311,20.87,16.311,39.69
			c0,20.31-15.779,25.869-24.318,25.869c-4.182,0-9.189-1.17-13.432-4.069c-9.42-6.109-18.771-22.37-18.771-41.72
			C-4143.51,2946.17-4133.11,2936.88-4120.741,2936.88z M-4106.731,3050.1c2.701,0,4.641,0.221,4.641,0.221s6.371,4.55,10.82,7.949
			c10.359,8.188,16.82,14.45,16.82,25.601c0,15.33-14.221,27.352-37.25,27.352c-25.279,0-44.6-11.771-44.6-30.99
			C-4156.299,3064.311-4143.059,3050.609-4106.731,3050.1L-4106.731,3050.1z"/>
	</g>
	<text transform="matrix(1 0 0 1 648.5 137.3145)" display="inline" font-family="'MyriadPro-Regular'" font-size="12">+</text>
</g>
<g id="Ebene_3">
	
		<linearGradient id="SVGID_1_" gradientUnits="userSpaceOnUse" x1="109.3599" y1="225.8379" x2="109.3599" y2="-0.5645" gradientTransform="matrix(1 0 0 -1 0.1401 225.0547)">
		<stop  offset="0" style="stop-color:#1A6FEF"/>
		<stop  offset="0.25" style="stop-color:#1E72EF"/>
		<stop  offset="0.5" style="stop-color:#166BEC"/>
		<stop  offset="0.75" style="stop-color:#1267E9"/>
		<stop  offset="1" style="stop-color:#1063E5;stop-opacity:0.87"/>
	</linearGradient>
	<rect x="-0.5" y="-0.49" fill="url(#SVGID_1_)" width="220" height="226"/>
	<g id="Ebene_2">
		<g id="layer1_1_" transform="translate(4636.4128,-2865.2086)">
			<path id="path4429_1_" fill="#FFFFFF" d="M-4546.981,2884.115c-35.379,0-54.52,22.4-54.52,47.41
				c0,19.04,13.641,40.521,41.779,40.521h7.119c0,0-1.938,4.711-1.949,9.26c0,6.711,2.41,10.479,7.529,16.281
				c-48.42,2.948-67.881,22.479-67.881,43.469c0,18.381,17.602,36.471,54.59,36.471c43.791,0,66.471-24.311,66.471-48.17
				c0-16.819-8.379-26.041-29.6-41.938c-6.24-4.853-7.451-7.941-7.451-11.57c0-5.201,3.109-8.641,4.25-9.939
				c2.012-2.121,5.49-4.541,6.791-5.7c7.129-6.039,17.199-14.98,17.199-32.82c0-12.24-5.09-22.77-16.689-32.63h14.16l10.641-10.64
				h-52.432L-4546.981,2884.115z M-4556.741,2892.075c6.42,0,11.779,2.27,17.439,6.98c6.279,5.66,16.311,20.87,16.311,39.69
				c0,20.31-15.779,25.87-24.318,25.87c-4.182,0-9.189-1.17-13.432-4.07c-9.42-6.109-18.771-22.37-18.771-41.72
				C-4579.51,2901.365-4569.11,2892.075-4556.741,2892.075z M-4542.731,3005.295c2.701,0,4.641,0.221,4.641,0.221
				s6.371,4.55,10.82,7.949c10.359,8.188,16.82,14.45,16.82,25.601c0,15.33-14.221,27.352-37.25,27.352
				c-25.279,0-44.602-11.771-44.602-30.99C-4592.299,3019.506-4579.059,3005.804-4542.731,3005.295L-4542.731,3005.295z"/>
		</g>
	</g>
	<g id="Ebene_4" display="none">
	</g>
	<g id="Ebene_5">
		
			<rect x="148.517" y="46.204" transform="matrix(-1 -0.007 0.007 -1 367.3543 194.6943)" fill="none" width="71.002" height="101.002"/>
		<text transform="matrix(1 0.007 -0.007 1 148.3574 116.9727)" fill="#FFFFFF" font-family="'MyriadPro-Regular'" font-size="100">+</text>
	</g>
	<g id="Ebene_6" display="none">
	</g>
	<rect id="_x3C_Slice_x3E_" x="-0.5" y="-6.49" display="none" fill="none" width="221" height="232"/>
</g>
</svg>
